<mxfile host="app.diagrams.net" agent="Mozilla/5.0 (X11; Ubuntu; Linux x86_64; rv:137.0) Gecko/20100101 Firefox/137.0" version="24.8.0">
  <diagram name="Page-1" id="hzPXr6OTKCJQ9SCvlb5Q">
    <mxGraphModel dx="1364" dy="766" grid="1" gridSize="10" guides="1" tooltips="1" connect="1" arrows="1" fold="1" page="1" pageScale="1" pageWidth="1100" pageHeight="850" math="0" shadow="0">
      <root>
        <mxCell id="0" />
        <mxCell id="1" parent="0" />
        <mxCell id="qmLXyW-9ymPNNm_9Fm1r-1" style="rounded=0;orthogonalLoop=1;jettySize=auto;html=1;exitX=1;exitY=0.5;exitDx=0;exitDy=0;endArrow=none;endFill=0;" parent="1" source="qmLXyW-9ymPNNm_9Fm1r-3" target="qmLXyW-9ymPNNm_9Fm1r-16" edge="1">
          <mxGeometry relative="1" as="geometry" />
        </mxCell>
        <mxCell id="qmLXyW-9ymPNNm_9Fm1r-2" style="edgeStyle=orthogonalEdgeStyle;rounded=0;orthogonalLoop=1;jettySize=auto;html=1;exitX=0.5;exitY=0;exitDx=0;exitDy=0;endArrow=none;endFill=0;" parent="1" source="qmLXyW-9ymPNNm_9Fm1r-3" edge="1">
          <mxGeometry relative="1" as="geometry">
            <mxPoint x="464.46999999999997" y="380" as="targetPoint" />
          </mxGeometry>
        </mxCell>
        <mxCell id="qmLXyW-9ymPNNm_9Fm1r-3" value="" style="image;html=1;image=img/lib/clip_art/networking/Firewall_02_128x128.png;direction=east;flipH=1;" parent="1" vertex="1">
          <mxGeometry x="414.46999999999997" y="440" width="100" height="100" as="geometry" />
        </mxCell>
        <mxCell id="qmLXyW-9ymPNNm_9Fm1r-4" style="edgeStyle=orthogonalEdgeStyle;rounded=0;orthogonalLoop=1;jettySize=auto;html=1;exitX=0.875;exitY=0.5;exitDx=0;exitDy=0;exitPerimeter=0;endArrow=none;endFill=0;" parent="1" source="qmLXyW-9ymPNNm_9Fm1r-9" target="qmLXyW-9ymPNNm_9Fm1r-3" edge="1">
          <mxGeometry relative="1" as="geometry" />
        </mxCell>
        <mxCell id="qmLXyW-9ymPNNm_9Fm1r-5" style="rounded=0;orthogonalLoop=1;jettySize=auto;html=1;exitX=0.4;exitY=0.1;exitDx=0;exitDy=0;exitPerimeter=0;endArrow=none;endFill=0;" parent="1" source="qmLXyW-9ymPNNm_9Fm1r-9" target="qmLXyW-9ymPNNm_9Fm1r-17" edge="1">
          <mxGeometry relative="1" as="geometry" />
        </mxCell>
        <mxCell id="qmLXyW-9ymPNNm_9Fm1r-6" style="rounded=0;orthogonalLoop=1;jettySize=auto;html=1;exitX=0.625;exitY=0.2;exitDx=0;exitDy=0;exitPerimeter=0;strokeColor=none;" parent="1" source="qmLXyW-9ymPNNm_9Fm1r-9" target="qmLXyW-9ymPNNm_9Fm1r-28" edge="1">
          <mxGeometry relative="1" as="geometry" />
        </mxCell>
        <mxCell id="qmLXyW-9ymPNNm_9Fm1r-7" style="rounded=0;orthogonalLoop=1;jettySize=auto;html=1;exitX=0.625;exitY=0.2;exitDx=0;exitDy=0;exitPerimeter=0;endArrow=none;endFill=0;strokeColor=#808080;" parent="1" source="qmLXyW-9ymPNNm_9Fm1r-9" target="qmLXyW-9ymPNNm_9Fm1r-28" edge="1">
          <mxGeometry relative="1" as="geometry" />
        </mxCell>
        <mxCell id="qmLXyW-9ymPNNm_9Fm1r-9" value="" style="ellipse;shape=cloud;whiteSpace=wrap;html=1;fillColor=#ffe6cc;strokeColor=#d79b00;" parent="1" vertex="1">
          <mxGeometry x="120.46999999999998" y="425" width="230" height="130" as="geometry" />
        </mxCell>
        <mxCell id="qmLXyW-9ymPNNm_9Fm1r-10" style="rounded=0;orthogonalLoop=1;jettySize=auto;html=1;exitX=0.5;exitY=0;exitDx=0;exitDy=0;endArrow=none;endFill=0;strokeColor=#808080;" parent="1" source="qmLXyW-9ymPNNm_9Fm1r-20" target="qmLXyW-9ymPNNm_9Fm1r-28" edge="1">
          <mxGeometry relative="1" as="geometry" />
        </mxCell>
        <mxCell id="qmLXyW-9ymPNNm_9Fm1r-11" style="rounded=0;orthogonalLoop=1;jettySize=auto;html=1;exitX=0.88;exitY=0.25;exitDx=0;exitDy=0;exitPerimeter=0;entryX=0.174;entryY=1.029;entryDx=0;entryDy=0;entryPerimeter=0;endArrow=none;endFill=0;" parent="1" source="qmLXyW-9ymPNNm_9Fm1r-12" target="qmLXyW-9ymPNNm_9Fm1r-33" edge="1">
          <mxGeometry relative="1" as="geometry" />
        </mxCell>
        <mxCell id="qmLXyW-9ymPNNm_9Fm1r-12" value="" style="ellipse;shape=cloud;whiteSpace=wrap;html=1;fillColor=#dae8fc;strokeColor=#6c8ebf;" parent="1" vertex="1">
          <mxGeometry x="350.46999999999997" y="250" width="220" height="130" as="geometry" />
        </mxCell>
        <mxCell id="qmLXyW-9ymPNNm_9Fm1r-13" style="edgeStyle=orthogonalEdgeStyle;rounded=0;orthogonalLoop=1;jettySize=auto;html=1;exitX=0.4;exitY=0.1;exitDx=0;exitDy=0;exitPerimeter=0;endArrow=none;endFill=0;strokeColor=#808080;" parent="1" source="qmLXyW-9ymPNNm_9Fm1r-16" target="qmLXyW-9ymPNNm_9Fm1r-28" edge="1">
          <mxGeometry relative="1" as="geometry">
            <Array as="points">
              <mxPoint x="672.47" y="120" />
            </Array>
          </mxGeometry>
        </mxCell>
        <mxCell id="qmLXyW-9ymPNNm_9Fm1r-14" style="rounded=0;orthogonalLoop=1;jettySize=auto;html=1;exitX=0.88;exitY=0.25;exitDx=0;exitDy=0;exitPerimeter=0;endArrow=none;endFill=0;" parent="1" source="qmLXyW-9ymPNNm_9Fm1r-16" target="qmLXyW-9ymPNNm_9Fm1r-35" edge="1">
          <mxGeometry relative="1" as="geometry" />
        </mxCell>
        <mxCell id="qmLXyW-9ymPNNm_9Fm1r-16" value="" style="ellipse;shape=cloud;whiteSpace=wrap;html=1;fillColor=#f5f5f5;fontColor=#333333;strokeColor=#666666;" parent="1" vertex="1">
          <mxGeometry x="580.47" y="430" width="230" height="130" as="geometry" />
        </mxCell>
        <mxCell id="qmLXyW-9ymPNNm_9Fm1r-17" value="" style="image;points=[];aspect=fixed;html=1;align=center;shadow=0;dashed=0;image=img/lib/allied_telesis/computer_and_terminals/Server_Desktop.svg;" parent="1" vertex="1">
          <mxGeometry x="160.22999999999996" y="280" width="80.47" height="102" as="geometry" />
        </mxCell>
        <mxCell id="qmLXyW-9ymPNNm_9Fm1r-18" value="" style="image;aspect=fixed;html=1;points=[];align=center;fontSize=12;image=img/lib/azure2/networking/DNS_Zones.svg;" parent="1" vertex="1">
          <mxGeometry x="200.46999999999997" y="320" width="30" height="30" as="geometry" />
        </mxCell>
        <mxCell id="qmLXyW-9ymPNNm_9Fm1r-19" value="&lt;div&gt;Internet&lt;/div&gt;&lt;div&gt;192.42.0.0/16&lt;/div&gt;" style="text;strokeColor=none;align=center;fillColor=none;html=1;verticalAlign=middle;whiteSpace=wrap;rounded=0;" parent="1" vertex="1">
          <mxGeometry x="190.46999999999997" y="475" width="90" height="40" as="geometry" />
        </mxCell>
        <mxCell id="qmLXyW-9ymPNNm_9Fm1r-20" value="&lt;div&gt;DMZ&lt;br&gt;    172.17.100.0/24&lt;/div&gt;" style="text;strokeColor=none;align=center;fillColor=none;html=1;verticalAlign=middle;whiteSpace=wrap;rounded=0;" parent="1" vertex="1">
          <mxGeometry x="419.46999999999997" y="295" width="90" height="40" as="geometry" />
        </mxCell>
        <mxCell id="qmLXyW-9ymPNNm_9Fm1r-21" value="&lt;div&gt;USER&lt;/div&gt;&lt;div&gt;192.168.50.0/24&lt;br/&gt;  &lt;br&gt;&lt;/div&gt;" style="text;strokeColor=none;align=center;fillColor=none;html=1;verticalAlign=middle;whiteSpace=wrap;rounded=0;" parent="1" vertex="1">
          <mxGeometry x="655.47" y="484" width="90" height="40" as="geometry" />
        </mxCell>
        <mxCell id="qmLXyW-9ymPNNm_9Fm1r-22" value="Public DNS" style="text;strokeColor=none;align=center;fillColor=none;html=1;verticalAlign=middle;whiteSpace=wrap;rounded=0;" parent="1" vertex="1">
          <mxGeometry x="170.46999999999997" y="250" width="60" height="30" as="geometry" />
        </mxCell>
        <mxCell id="qmLXyW-9ymPNNm_9Fm1r-23" value="Firewall" style="text;strokeColor=none;align=center;fillColor=none;html=1;verticalAlign=middle;whiteSpace=wrap;rounded=0;" parent="1" vertex="1">
          <mxGeometry x="400.46999999999997" y="420" width="60" height="30" as="geometry" />
        </mxCell>
        <mxCell id="qmLXyW-9ymPNNm_9Fm1r-24" value="" style="shape=image;html=1;verticalAlign=top;verticalLabelPosition=bottom;labelBackgroundColor=#ffffff;imageAspect=0;aspect=fixed;image=https://cdn4.iconfinder.com/data/icons/crime-and-security-24/64/57-128.png" parent="1" vertex="1">
          <mxGeometry x="440.46999999999997" y="475" width="40" height="40" as="geometry" />
        </mxCell>
        <mxCell id="qmLXyW-9ymPNNm_9Fm1r-25" style="rounded=0;orthogonalLoop=1;jettySize=auto;html=1;exitX=0.31;exitY=0.8;exitDx=0;exitDy=0;exitPerimeter=0;endArrow=none;endFill=0;" parent="1" target="qmLXyW-9ymPNNm_9Fm1r-26" edge="1">
          <mxGeometry relative="1" as="geometry">
            <mxPoint x="191.46999999999997" y="529" as="sourcePoint" />
          </mxGeometry>
        </mxCell>
        <mxCell id="qmLXyW-9ymPNNm_9Fm1r-26" value="" style="shape=image;html=1;verticalAlign=top;verticalLabelPosition=bottom;labelBackgroundColor=#ffffff;imageAspect=0;aspect=fixed;image=https://cdn0.iconfinder.com/data/icons/kameleon-free-pack/110/Hacker-128.png" parent="1" vertex="1">
          <mxGeometry x="110.23999999999998" y="585" width="90" height="90" as="geometry" />
        </mxCell>
        <mxCell id="qmLXyW-9ymPNNm_9Fm1r-27" value="Attacker" style="text;strokeColor=none;align=center;fillColor=none;html=1;verticalAlign=middle;whiteSpace=wrap;rounded=0;" parent="1" vertex="1">
          <mxGeometry x="120.23999999999998" y="585" width="60" height="30" as="geometry" />
        </mxCell>
        <mxCell id="qmLXyW-9ymPNNm_9Fm1r-28" value="" style="sketch=0;pointerEvents=1;shadow=0;dashed=0;html=1;strokeColor=none;fillColor=#505050;labelPosition=center;verticalLabelPosition=bottom;verticalAlign=top;outlineConnect=0;align=center;shape=mxgraph.office.devices.workstation;" parent="1" vertex="1">
          <mxGeometry x="414.46999999999997" y="70" width="80" height="90" as="geometry" />
        </mxCell>
        <mxCell id="qmLXyW-9ymPNNm_9Fm1r-29" value="&lt;div&gt;Management&lt;/div&gt;&lt;div&gt;Host&lt;br&gt;&lt;/div&gt;" style="text;html=1;strokeColor=none;fillColor=none;align=center;verticalAlign=middle;whiteSpace=wrap;rounded=0;" parent="1" vertex="1">
          <mxGeometry x="414.46999999999997" y="40" width="60" height="30" as="geometry" />
        </mxCell>
        <mxCell id="qmLXyW-9ymPNNm_9Fm1r-33" value="" style="image;points=[];aspect=fixed;html=1;align=center;shadow=0;dashed=0;image=img/lib/allied_telesis/computer_and_terminals/Server_Desktop.svg;" parent="1" vertex="1">
          <mxGeometry x="550.47" y="160" width="80.47" height="102" as="geometry" />
        </mxCell>
        <mxCell id="qmLXyW-9ymPNNm_9Fm1r-34" value="&lt;div&gt;Videoserver&lt;/div&gt;" style="text;strokeColor=none;align=center;fillColor=none;html=1;verticalAlign=middle;whiteSpace=wrap;rounded=0;" parent="1" vertex="1">
          <mxGeometry x="560.71" y="130" width="60" height="30" as="geometry" />
        </mxCell>
        <mxCell id="qmLXyW-9ymPNNm_9Fm1r-35" value="" style="image;points=[];aspect=fixed;html=1;align=center;shadow=0;dashed=0;image=img/lib/allied_telesis/computer_and_terminals/Server_Desktop.svg;" parent="1" vertex="1">
          <mxGeometry x="560.71" y="573" width="80.47" height="102" as="geometry" />
        </mxCell>
        <mxCell id="qmLXyW-9ymPNNm_9Fm1r-36" value="Client" style="text;strokeColor=none;align=center;fillColor=none;html=1;verticalAlign=middle;whiteSpace=wrap;rounded=0;" parent="1" vertex="1">
          <mxGeometry x="530" y="560" width="60" height="30" as="geometry" />
        </mxCell>
        <mxCell id="cstpgLU097S2txqfitos-1" value="" style="shape=mxgraph.signs.tech.telephone_3;html=1;pointerEvents=1;fillColor=#000000;strokeColor=none;verticalLabelPosition=bottom;verticalAlign=top;align=center;" vertex="1" parent="1">
          <mxGeometry x="360" y="588.75" width="49.53" height="70.5" as="geometry" />
        </mxCell>
        <mxCell id="cstpgLU097S2txqfitos-2" style="rounded=0;orthogonalLoop=1;jettySize=auto;html=1;endArrow=none;endFill=0;" edge="1" parent="1">
          <mxGeometry relative="1" as="geometry">
            <mxPoint x="350" y="623" as="sourcePoint" />
            <mxPoint x="210" y="623" as="targetPoint" />
          </mxGeometry>
        </mxCell>
        <mxCell id="cstpgLU097S2txqfitos-3" style="rounded=0;orthogonalLoop=1;jettySize=auto;html=1;endArrow=none;endFill=0;" edge="1" parent="1">
          <mxGeometry relative="1" as="geometry">
            <mxPoint x="540.47" y="623.5" as="sourcePoint" />
            <mxPoint x="400.47" y="623.5" as="targetPoint" />
          </mxGeometry>
        </mxCell>
        <mxCell id="cstpgLU097S2txqfitos-4" value="Social Engineering" style="text;strokeColor=none;align=center;fillColor=none;html=1;verticalAlign=middle;whiteSpace=wrap;rounded=0;" vertex="1" parent="1">
          <mxGeometry x="306" y="636" width="60" height="30" as="geometry" />
        </mxCell>
      </root>
    </mxGraphModel>
  </diagram>
</mxfile>
